<svg version="1.1" xmlns="http://www.w3.org/2000/svg" xmlns:xlink="http://www.w3.org/1999/xlink" x="0px" y="0px" width="189" height="30" viewBox="0 0 189 30" enable-background="new 0 0 189 30" xml:space="preserve">
<g><rect x="104.9" y="0" width="6.6" height="30"/><polygon points="90.5,0 75.9,30 82.4,30 97.2,0  "/><polygon points="140.4,0 117.3,12.4 117.3,17.7 140.4,30 140.4,23.4 124.1,15.1 140.4,6.6  "/><rect x="150.6" y="0" width="6.6" height="30"/><rect x="166.5" y="0" width="6.6" height="30"/><rect x="182.4" y="0" width="6.6" height="30"/><polygon points="14.7,0 0,30 3.8,30 18.3,0  "/><polygon points="27.3,0 12.6,30 16.4,30 30.9,0  "/><polygon points="39.9,0 25.2,30 29,30 43.5,0  "/><polygon points="52.5,0 37.8,30 41.6,30 56.1,0  "/><polygon points="65.1,0 50.4,30 54.2,30 68.8,0  "/><polygon points="77.7,0 63,30 66.8,30 81.4,0  "/></g></svg>